<svg width="800" height="800" viewBox="0 0 800 800" fill="none" xmlns="http://www.w3.org/2000/svg">
<line x1="395.48" y1="415.521" x2="395.48" y2="-3.05176e-05" stroke="#D1D1D1" stroke-width="49"/>
<line y1="-24.5" x2="163.243" y2="-24.5" transform="matrix(0.699189 -0.714937 0.699189 0.714937 400.266 277.964)" stroke="#D1D1D1" stroke-width="49"/>
<line y1="-24.5" x2="163.243" y2="-24.5" transform="matrix(-0.699189 -0.714937 -0.699189 0.714937 387.046 277.964)" stroke="#D1D1D1" stroke-width="49"/>
<line y1="-24.5" x2="120.658" y2="-24.5" transform="matrix(0.699189 -0.714937 0.699189 0.714937 400.266 185.503)" stroke="#D1D1D1" stroke-width="49"/>
<line y1="-24.5" x2="120.658" y2="-24.5" transform="matrix(-0.699189 -0.714937 -0.699189 0.714937 387.046 185.503)" stroke="#D1D1D1" stroke-width="49"/>
<line y1="-24.5" x2="427.903" y2="-24.5" transform="matrix(0.00619016 0.999981 -0.999979 0.00647213 373.404 372.106)" stroke="#D1D1D1" stroke-width="49"/>
<line y1="-24.5" x2="163.243" y2="-24.5" transform="matrix(-0.699189 0.714937 -0.699189 -0.714937 393.116 509.662)" stroke="#D1D1D1" stroke-width="49"/>
<line y1="-24.5" x2="163.243" y2="-24.5" transform="matrix(0.699189 0.714937 0.699189 -0.714937 406.334 509.662)" stroke="#D1D1D1" stroke-width="49"/>
<line y1="-24.5" x2="120.658" y2="-24.5" transform="matrix(-0.699189 0.714937 -0.699189 -0.714937 393.116 602.123)" stroke="#D1D1D1" stroke-width="49"/>
<line y1="-24.5" x2="120.658" y2="-24.5" transform="matrix(0.699189 0.714937 0.699189 -0.714937 406.334 602.123)" stroke="#D1D1D1" stroke-width="49"/>
<line y1="-24.5" x2="408.52" y2="-24.5" transform="matrix(-0.871099 -0.491107 0.474614 -0.880194 426.97 382.961)" stroke="#D1D1D1" stroke-width="49"/>
<line y1="-24.5" x2="163.243" y2="-24.5" transform="matrix(-0.274697 -0.971274 0.94988 -0.280884 299.643 334.194)" stroke="#D1D1D1" stroke-width="49"/>
<line y1="-24.5" x2="163.243" y2="-24.5" transform="matrix(-0.94988 0.280884 0.274697 0.971274 293.262 346.035)" stroke="#D1D1D1" stroke-width="49"/>
<line y1="-24.5" x2="120.658" y2="-24.5" transform="matrix(-0.274697 -0.971274 0.94988 -0.280884 220.461 289.551)" stroke="#D1D1D1" stroke-width="49"/>
<line y1="-24.5" x2="120.658" y2="-24.5" transform="matrix(-0.94988 0.280884 0.274697 0.971274 214.076 301.392)" stroke="#D1D1D1" stroke-width="49"/>
<line y1="-24.5" x2="408.737" y2="-24.5" transform="matrix(-0.857191 0.514998 -0.498224 -0.867048 398.202 362.329)" stroke="#D1D1D1" stroke-width="49"/>
<line y1="-24.5" x2="163.243" y2="-24.5" transform="matrix(-0.957034 -0.25423 0.24863 -0.978589 292.195 449.391)" stroke="#D1D1D1" stroke-width="49"/>
<line y1="-24.5" x2="163.243" y2="-24.5" transform="matrix(-0.24863 0.978589 0.957034 0.25423 298.895 461.05)" stroke="#D1D1D1" stroke-width="49"/>
<line y1="-24.5" x2="120.658" y2="-24.5" transform="matrix(-0.957034 -0.25423 0.24863 -0.978589 214.237 496.231)" stroke="#D1D1D1" stroke-width="49"/>
<line y1="-24.5" x2="120.658" y2="-24.5" transform="matrix(-0.24863 0.978589 0.957034 0.25423 220.932 507.889)" stroke="#D1D1D1" stroke-width="49"/>
<line y1="-24.5" x2="408.538" y2="-24.5" transform="matrix(0.86994 0.493158 -0.476638 0.879099 373.286 410.606)" stroke="#D1D1D1" stroke-width="49"/>
<line y1="-24.5" x2="163.243" y2="-24.5" transform="matrix(0.272484 0.971926 -0.950517 0.278621 491.252 458.923)" stroke="#D1D1D1" stroke-width="49"/>
<line y1="-24.5" x2="163.243" y2="-24.5" transform="matrix(0.950517 -0.278621 -0.272484 -0.971926 506.907 447.85)" stroke="#D1D1D1" stroke-width="49"/>
<line y1="-24.5" x2="120.658" y2="-24.5" transform="matrix(0.272484 0.971926 -0.950517 0.278621 570.09 502.334)" stroke="#D1D1D1" stroke-width="49"/>
<line y1="-24.5" x2="120.658" y2="-24.5" transform="matrix(0.950517 -0.278621 -0.272484 -0.971926 585.995 492.682)" stroke="#D1D1D1" stroke-width="49"/>
<line y1="-24.5" x2="408.841" y2="-24.5" transform="matrix(0.850386 -0.526159 0.50928 0.860601 391.511 430.617)" stroke="#D1D1D1" stroke-width="49"/>
<line y1="-24.5" x2="163.243" y2="-24.5" transform="matrix(0.96017 0.241549 -0.236228 0.981796 496.401 342.16)" stroke="#D1D1D1" stroke-width="49"/>
<line y1="-24.5" x2="163.243" y2="-24.5" transform="matrix(0.236228 -0.981796 -0.96017 -0.241549 489.557 330.591)" stroke="#D1D1D1" stroke-width="49"/>
<line y1="-24.5" x2="120.658" y2="-24.5" transform="matrix(0.96017 0.241549 -0.236228 0.981796 573.764 294.293)" stroke="#D1D1D1" stroke-width="49"/>
<line y1="-24.5" x2="120.658" y2="-24.5" transform="matrix(0.236228 -0.981796 -0.96017 -0.241549 566.92 282.724)" stroke="#D1D1D1" stroke-width="49"/>
</svg>
